<svg width="32" height="32" viewBox="0 0 32 32" fill="none" xmlns="http://www.w3.org/2000/svg">
<path fill-rule="evenodd" clip-rule="evenodd" d="M16.6863 4C17.8443 4 18.8928 4.47013 19.6519 5.23009C20.4109 5.99005 20.8805 7.03981 20.8805 8.19909C20.8805 9.35837 20.4109 10.4081 19.6519 11.1681C18.8928 11.9281 17.8443 12.3982 16.6863 12.3982C15.5284 12.3982 14.4799 11.9281 13.7208 11.1681C12.9617 10.4081 12.4921 9.35837 12.4921 8.19909C12.4921 7.03981 12.9617 5.99005 13.7208 5.23009C14.4799 4.47013 15.5284 4 16.6863 4ZM15.2456 22.618C15.5551 22.8397 15.7458 23.1696 15.8032 23.5208C15.8112 23.5702 15.8165 23.6197 15.8192 23.6691C16.1127 23.629 16.4208 23.6958 16.6783 23.8814L16.8064 23.9736C17.0732 24.1659 17.2386 24.4504 17.2893 24.7549C17.3387 25.0581 17.2746 25.38 17.0825 25.6471L16.637 26.2695C17.1052 26.5446 17.4907 26.761 17.8096 26.9279C18.1324 27.0975 18.3992 27.2231 18.6273 27.3152H18.6353C19.0555 27.3353 19.3703 27.2471 19.5771 27.0548C19.7706 26.8745 19.8893 26.5873 19.932 26.1934L19.8453 26.1319C19.0689 25.5777 18.726 25.3333 17.9349 24.7749C17.7815 24.6668 17.7442 24.4531 17.8522 24.2995C17.9603 24.1459 18.1737 24.1085 18.3271 24.2167C19.0275 24.7122 19.3997 24.9766 20.2401 25.5763L20.3895 25.6832C20.7617 25.6605 21.0432 25.5563 21.234 25.3693C21.4154 25.193 21.5288 24.9313 21.5742 24.584C21.1726 24.2781 20.7417 23.9683 20.2815 23.6558C19.7639 23.3045 19.1996 22.9412 18.5846 22.5659C18.4245 22.4684 18.3738 22.2574 18.4712 22.0971C18.5686 21.9369 18.7794 21.8861 18.9394 21.9836C19.5491 22.3562 20.1227 22.7262 20.663 23.0921C21.1566 23.4274 21.6115 23.7546 22.0264 24.0725C22.6374 23.9843 23.0296 23.8054 23.2057 23.5356C23.3737 23.2778 23.3537 22.8972 23.147 22.395L19.916 20.6494C19.7505 20.5599 19.6878 20.3529 19.7772 20.1873C19.8666 20.0216 20.0734 19.9589 20.2388 20.0483L23.3885 21.7499C23.6766 21.5295 23.854 21.2918 23.9207 21.038C23.9941 20.7549 23.9354 20.4277 23.742 20.0591C23.6739 20.003 23.5686 19.9108 23.0523 19.6063L23.0496 19.605C23.0243 19.5903 22.9989 19.5742 22.9736 19.5569L22.8975 19.5128C22.4813 19.2777 20.7698 18.3095 17.9108 16.6453L17.9001 16.6386C17.6974 16.5104 17.4826 16.4049 17.2625 16.3261C16.7555 16.1431 16.2179 16.0897 15.739 16.1966C15.2815 16.2981 14.8773 16.5491 14.6078 16.9752C14.5344 17.0914 14.4704 17.2196 14.4184 17.3612L14.4117 17.3825C14.1689 18.0236 13.8594 18.4857 13.4846 18.7675C13.079 19.0721 12.6134 19.1656 12.0878 19.0467C11.9651 19.0186 11.8624 18.9238 11.8317 18.7929C11.685 18.1812 11.6983 17.1248 11.8744 15.6223C11.8811 15.5515 11.9091 15.482 11.9598 15.4259C12.2679 15.08 12.6188 14.7341 12.9816 14.3962C11.9304 13.9488 10.8765 13.5161 9.81735 13.0873L6.61836 18.8024L8.29254 20.8765L8.60337 21.0862L8.67941 21.1369L9.45047 20.0605C9.67192 19.7506 10.0014 19.5597 10.3523 19.5022C10.7018 19.4448 11.074 19.5196 11.3835 19.7413C11.6649 19.943 11.8477 20.2341 11.9224 20.548C12.0731 20.4745 12.2345 20.4224 12.3986 20.3957C12.8295 20.3249 13.2858 20.4171 13.6673 20.6896L13.6699 20.6909C14.0488 20.9634 14.2836 21.368 14.3543 21.7994C14.385 21.9851 14.385 22.1761 14.353 22.363C14.6598 22.3443 14.9761 22.4257 15.2456 22.618ZM13.5594 26.8771C13.6221 27.1536 13.7821 27.4074 14.0276 27.5837L14.133 27.6598C14.1397 27.6665 14.1477 27.6718 14.1557 27.6772C14.4225 27.8695 14.744 27.9336 15.0468 27.8842C15.3496 27.8334 15.6351 27.6691 15.8272 27.4007L16.2381 26.8264C16.7237 27.1122 17.1372 27.3446 17.4948 27.5316C17.871 27.7292 18.1751 27.8708 18.4272 27.9696C18.4593 27.9816 18.4939 27.9896 18.5313 27.9923L18.5953 27.9963H18.5993C19.213 28.0257 19.6932 27.8788 20.0414 27.5542C20.3429 27.2724 20.5297 26.8704 20.599 26.3469C21.0606 26.2921 21.4301 26.1279 21.709 25.8581C21.9931 25.5829 22.1705 25.2063 22.2426 24.7295C22.9923 24.6013 23.5032 24.3275 23.7767 23.9068C24.0555 23.4781 24.0728 22.9331 23.8301 22.2721C24.2263 21.9622 24.477 21.6069 24.5798 21.2089C24.7012 20.7415 24.6158 20.238 24.3223 19.697C24.3063 19.6623 24.2836 19.6303 24.2543 19.6009C24.2543 19.6009 24.3076 19.6116 24.1249 19.49L25.4255 18.8222L25.8084 19.4726V19.474C25.9298 19.681 26.1246 19.8186 26.3394 19.8747C26.5541 19.9308 26.7902 19.904 26.9957 19.7838L26.997 19.7825L29.5463 18.28C29.5663 18.2706 29.585 18.2586 29.6037 18.2453C29.7918 18.1224 29.9185 17.9367 29.9719 17.7337C30.0252 17.5294 30.0039 17.305 29.8972 17.106C29.8878 17.086 29.8772 17.0673 29.8638 17.0486L25.7992 10.1342L25.7885 10.1141C25.6671 9.90845 25.4723 9.77089 25.2562 9.71478C25.0428 9.66002 24.808 9.68406 24.6039 9.80293L24.5985 9.80694L22.0252 11.3242H22.0239C21.8171 11.4457 21.6797 11.6407 21.6236 11.8557C21.5676 12.0708 21.5943 12.3071 21.7144 12.5128L21.7157 12.5142L21.8891 12.8093C21.2901 12.9576 20.7112 13.0564 20.1495 13.1058C19.4638 13.1659 18.8088 13.1512 18.1858 13.0631C17.216 12.8267 16.4036 12.7252 15.7486 12.7599C15.0416 12.7973 14.504 12.9923 14.1357 13.3436C13.9396 13.5212 13.7355 13.7042 13.5288 13.8912C12.4162 13.4157 11.2743 12.9402 10.1524 12.4835L10.1764 12.4421C10.2938 12.2324 10.3151 11.9946 10.2538 11.7809C10.1937 11.5659 10.051 11.3736 9.84289 11.256L7.23755 9.79492C7.0281 9.67739 6.79065 9.65736 6.5772 9.71746C6.36242 9.77756 6.17033 9.92047 6.05292 10.1288L2.11087 17.1766C1.99347 17.3863 1.97213 17.624 2.0335 17.8377C2.09353 18.0527 2.23627 18.2451 2.44437 18.3626L5.04971 19.8237C5.25915 19.9412 5.49661 19.9613 5.71005 19.9012C5.92483 19.8411 6.11693 19.6982 6.23434 19.4898L6.26235 19.4404L7.7858 21.3276C7.80847 21.3596 7.83782 21.389 7.87251 21.4131L8.22334 21.6508L8.28204 21.6909L8.15264 21.8712C7.93119 22.181 7.85648 22.5523 7.91385 22.9036C7.97121 23.2548 8.16197 23.5834 8.47146 23.8064C8.7276 23.9907 9.02642 24.0735 9.31991 24.0642C9.27189 24.2805 9.26655 24.5022 9.30124 24.7173C9.37194 25.1487 9.60539 25.552 9.98559 25.8258L9.98825 25.8272C10.3685 26.0996 10.826 26.1931 11.2569 26.121C11.449 26.0889 11.6371 26.0248 11.8092 25.93C11.8906 26.2238 12.0693 26.4936 12.3348 26.6846C12.6443 26.9063 13.0152 26.9811 13.366 26.9237C13.43 26.913 13.4953 26.8972 13.5594 26.8771ZM15.1309 23.6303C15.1602 23.808 15.1215 23.9976 15.0095 24.1552L13.7115 25.9676C13.5994 26.1252 13.4326 26.2214 13.2552 26.2508C13.0778 26.2802 12.8884 26.2414 12.7309 26.1292C12.5735 26.017 12.4775 25.8501 12.4481 25.6725C12.4201 25.4975 12.4561 25.3119 12.5642 25.1569L12.5655 25.1556L12.5709 25.1476L13.8689 23.3352L13.8742 23.3272C13.9863 23.1749 14.1503 23.0801 14.3251 23.0521C14.5025 23.0227 14.692 23.0614 14.8494 23.1736C15.0041 23.2871 15.1015 23.4527 15.1309 23.6303ZM7.35604 11.8157C7.44009 11.6474 7.64553 11.5806 7.8136 11.6647C7.98169 11.7489 8.04839 11.9546 7.96434 12.1228L6.96782 14.1008C6.88378 14.2691 6.67834 14.3359 6.51027 14.2518C6.34218 14.1663 6.27548 13.9619 6.35952 13.7937L7.35604 11.8157ZM23.7004 12.1095C23.615 11.9412 23.683 11.7355 23.8511 11.6514C24.0192 11.5673 24.2247 11.634 24.3087 11.8023L25.3039 13.7803C25.3892 13.9486 25.3212 14.1543 25.1531 14.2384C24.985 14.3226 24.7796 14.2558 24.6956 14.0875L23.7004 12.1095ZM25.0811 18.2358L23.5857 19.0038C23.531 19.0225 23.4843 19.0305 23.4442 19.0265C23.4149 19.0238 23.3882 19.0145 23.3642 18.9958C23.3535 18.9891 23.3429 18.9811 23.3322 18.9757L23.2361 18.9223H23.2348C22.8453 18.7019 21.2351 17.7924 18.2563 16.0562C18.0175 15.9052 17.76 15.781 17.4945 15.6849C16.8702 15.4592 16.2005 15.3964 15.5949 15.5313C14.9666 15.6715 14.4089 16.0188 14.0341 16.6118C13.9367 16.7654 13.8527 16.9377 13.782 17.1273L13.7766 17.142C13.5805 17.6602 13.3471 18.0208 13.0789 18.2225C12.8962 18.3601 12.6881 18.4229 12.4546 18.4122C12.3786 17.8646 12.4079 16.9951 12.5426 15.8011C13.171 15.1253 13.9127 14.4722 14.5957 13.8512V13.8498L14.6037 13.8418C14.8492 13.6041 15.2427 13.4705 15.7843 13.4425C16.374 13.4118 17.1223 13.5066 18.0281 13.7283C18.0441 13.7336 18.0615 13.7376 18.0802 13.7403C18.7618 13.8378 19.4715 13.8538 20.2093 13.7897C20.8643 13.7323 21.5446 13.6108 22.2503 13.4251L25.0811 18.2358ZM29.2953 17.4198L29.2967 17.4225C29.322 17.4665 29.326 17.5173 29.3153 17.5627C29.3033 17.6094 29.274 17.6522 29.23 17.6776L29.2273 17.6789L26.6566 19.1948C26.6126 19.2215 26.5606 19.2268 26.5139 19.2148C26.4672 19.2028 26.4245 19.1734 26.3992 19.1293L22.7146 12.8721C22.708 12.8587 22.7013 12.8467 22.6933 12.8347L22.3024 12.1709C22.2757 12.1268 22.2704 12.0747 22.2824 12.028C22.2944 11.9812 22.3238 11.9385 22.3678 11.9131L24.9158 10.4106C24.9304 10.4039 24.9438 10.3959 24.9571 10.3879C24.9985 10.3692 25.0438 10.3652 25.0852 10.3759C25.1279 10.3866 25.1665 10.4133 25.1932 10.452C25.1999 10.464 25.2079 10.476 25.2159 10.4881L29.2953 17.4198ZM18.3417 6.7659L15.9618 9.07912L15.2548 8.20298C15.1374 8.05607 14.9226 8.03336 14.7759 8.15089C14.6291 8.26842 14.6065 8.48345 14.7239 8.63035L15.6644 9.79496L15.667 9.79764C15.6737 9.80565 15.6804 9.81366 15.6884 9.82168C15.8191 9.95657 16.0352 9.95924 16.17 9.82835L18.818 7.2547C18.9527 7.12381 18.9554 6.90746 18.8247 6.77254C18.6926 6.63765 18.4765 6.63368 18.3417 6.7659ZM19.1688 5.71347C18.5338 5.07773 17.6561 4.68374 16.6862 4.68374C15.7164 4.68374 14.8386 5.07773 14.2036 5.71347C13.5686 6.34922 13.1751 7.22803 13.1751 8.19898C13.1751 9.16993 13.5686 10.0488 14.2036 10.6845C14.8386 11.3202 15.7164 11.7142 16.6862 11.7142C17.6561 11.7142 18.5339 11.3202 19.1688 10.6845C19.8038 10.0487 20.1974 9.16993 20.1974 8.19898C20.1974 7.22803 19.8038 6.34918 19.1688 5.71347ZM16.4101 24.5291C16.5248 24.6119 16.5955 24.7334 16.6169 24.863C16.6382 24.9939 16.6102 25.1328 16.5275 25.2476L15.2708 27.0012C15.1881 27.1161 15.0667 27.1882 14.9373 27.2096C14.8066 27.231 14.6678 27.2029 14.5531 27.1201C14.5465 27.1148 14.5384 27.1108 14.5304 27.1054L14.4237 27.0293V27.0279C14.309 26.9451 14.237 26.8236 14.2169 26.6941C14.1956 26.5658 14.2223 26.4283 14.3023 26.3147L14.3063 26.3094L15.563 24.5558C15.6457 24.4409 15.7671 24.3688 15.8965 24.3474C16.0272 24.3261 16.166 24.3541 16.2807 24.4369L16.4101 24.5291ZM13.2751 21.2489C13.5006 21.4118 13.6393 21.6522 13.6807 21.9086C13.7234 22.1678 13.6673 22.4415 13.5032 22.6713L13.3232 22.9224L13.3125 22.9371L12.0145 24.7495L12.0038 24.7641L11.8077 25.0366C11.6436 25.265 11.4022 25.4052 11.1447 25.448C10.8886 25.4907 10.6164 25.4359 10.3896 25.2757L10.379 25.2677C10.1535 25.1047 10.0148 24.8643 9.97343 24.6079C9.93074 24.3488 9.98677 24.075 10.1509 23.8452L11.8451 21.4799C12.0091 21.2515 12.2506 21.1113 12.5081 21.0686C12.7642 21.0258 13.0363 21.0806 13.2631 21.2409L13.2751 21.2489ZM11.2688 20.752C11.2981 20.9297 11.2594 21.1193 11.1474 21.2769L9.84935 23.0893C9.73729 23.2469 9.57054 23.3431 9.39313 23.3725C9.2157 23.4019 9.02628 23.3631 8.86884 23.2509C8.71143 23.1387 8.61538 22.9718 8.58603 22.7942C8.55668 22.6165 8.59536 22.4269 8.70742 22.2693L10.0054 20.4569C10.1175 20.2993 10.2842 20.2031 10.4617 20.1737C10.6391 20.1444 10.8285 20.1831 10.9859 20.2953C11.1434 20.4088 11.2394 20.5758 11.2688 20.752ZM5.63931 19.156C5.61396 19.2014 5.57261 19.2321 5.52592 19.2442C5.47923 19.2575 5.4272 19.2535 5.38318 19.2281L2.77783 17.767C2.73248 17.7416 2.70179 17.7002 2.68979 17.6535C2.67645 17.6067 2.68045 17.5547 2.7058 17.5106L6.64921 10.4655C6.67456 10.4201 6.71591 10.3894 6.7626 10.3774C6.80929 10.364 6.86132 10.368 6.90534 10.3934L9.51069 11.8545C9.55604 11.8799 9.58673 11.9213 9.59873 11.9681C9.61207 12.0148 9.60674 12.0669 9.58272 12.111L5.63931 19.156Z" fill="black"/>
</svg>
