<svg width="32" height="32" viewBox="0 0 32 32" fill="none" xmlns="http://www.w3.org/2000/svg">
<path d="M22.4431 6.85401C21.7033 6.85401 21.0362 7.30524 20.7521 7.99825C20.4692 8.6901 20.626 9.48784 21.1487 10.0174C21.6726 10.5469 22.459 10.7058 23.1431 10.4191C23.826 10.1325 24.2715 9.45678 24.2715 8.70737C24.2715 7.68399 23.4522 6.85516 22.4431 6.85401ZM22.4431 9.85845C21.9828 9.8596 21.5681 9.57872 21.3919 9.14817C21.2158 8.71766 21.3135 8.22151 21.6385 7.89227C21.9635 7.56304 22.4533 7.46405 22.8783 7.64247C23.3033 7.8209 23.5794 8.24106 23.5794 8.70729C23.5794 9.34271 23.0703 9.85845 22.4431 9.85845Z" fill="black"/>
<path d="M22.443 5.21011C21.2862 5.21126 20.1771 5.67747 19.3588 6.5063C18.5406 7.33398 18.0804 8.4575 18.0793 9.62947C18.0793 10.9303 19.1122 12.7249 19.9793 14.0016C20.369 14.576 21.6054 16.3361 22.2724 16.6285L22.2679 16.64C22.2702 16.6412 22.7554 16.8403 23.427 17.135L23.794 16.2774C23.6202 16.2014 23.4588 16.1312 23.3145 16.069H23.3156C23.8997 15.4209 24.4361 14.7291 24.9202 14.0004C25.7804 12.7273 26.8066 10.9362 26.8066 9.62951H26.8054C26.8043 8.45763 26.3441 7.33411 25.5259 6.50634C24.7088 5.67751 23.6 5.21126 22.443 5.21011ZM22.4487 15.6385C21.6442 14.8499 19.002 11.3804 19.002 9.63053V9.62938C19.002 7.70467 20.5429 6.14491 22.4429 6.14491C24.3429 6.14491 25.8826 7.70473 25.8826 9.62938C25.8826 11.3515 23.2633 14.8543 22.4484 15.6373L22.4487 15.6385Z" fill="black"/>
<path d="M7.9226 24.0406C8.66238 24.0406 9.32941 23.5882 9.61351 22.8964C9.89646 22.2034 9.73964 21.4068 9.21691 20.8761C8.69304 20.3465 7.90669 20.1877 7.22258 20.4743C6.53962 20.7621 6.09418 21.4378 6.09418 22.1872C6.09531 23.2095 6.91349 24.0395 7.9226 24.0406ZM7.9226 21.035C8.38282 21.035 8.7976 21.3159 8.97374 21.7464C9.14988 22.177 9.05215 22.672 8.72715 23.0012C8.40214 23.3316 7.91237 23.4294 7.48738 23.251C7.06353 23.0726 6.78623 22.6524 6.78623 22.1873C6.78623 21.5507 7.29534 21.0362 7.9226 21.035Z" fill="black"/>
<path d="M3.56025 23.1094C3.56025 24.4102 4.59321 26.2048 5.46023 27.4815C5.88636 28.1077 7.32158 30.1533 7.92272 30.1533C7.95113 30.1521 7.9784 30.1464 8.00567 30.1383L8.00681 30.1452C8.00795 30.1452 8.4693 30.0589 9.24998 29.9219L9.12385 29.1817L9.12498 29.184C9.57839 28.6384 10.0045 28.0697 10.4 27.4803C11.2602 26.2072 12.2864 24.4161 12.2864 23.1094C12.2864 21.5312 11.4545 20.0714 10.1045 19.2819C8.75454 18.4922 7.09217 18.4922 5.74206 19.2819C4.39207 20.0716 3.56025 21.5312 3.56025 23.1094ZM7.92272 19.6249C9.8227 19.6272 11.3613 21.1859 11.3636 23.1094C11.3636 24.8315 8.74428 28.3343 7.92941 29.1173C7.12487 28.3288 4.48272 24.8593 4.48272 23.1094C4.48499 21.1858 6.02364 19.6273 7.92243 19.6249H7.92272Z" fill="black"/>
<path d="M10.1841 29.763C11.0137 29.6237 11.8557 29.4879 12.6876 29.3601L12.5489 28.4357C11.7126 28.5646 10.866 28.7005 10.033 28.8409L10.1841 29.763Z" fill="black"/>
<path d="M20.5408 20.1244L20.3885 21.0465C20.959 21.1432 21.5874 21.2537 22.2829 21.3757L22.8897 21.4816L23.0465 20.5607L22.4397 20.4548C21.7431 20.3328 21.1124 20.2211 20.5408 20.1244Z" fill="black"/>
<path d="M19.3158 23.799C20.1328 23.9739 21.0385 24.1512 21.8169 24.3009L21.9897 23.3822C21.2158 23.2337 20.3158 23.0576 19.5067 22.8838L19.3158 23.799Z" fill="black"/>
<path d="M27.0796 20.509L27.5023 21.3401C28.0648 21.0903 28.4307 20.5309 28.4398 19.9081C28.4171 19.3613 28.1932 18.8433 27.8114 18.4553L27.1398 19.0965C27.3591 19.3118 27.4932 19.6007 27.5171 19.9081C27.5171 20.0013 27.5171 20.281 27.0796 20.509Z" fill="black"/>
<path d="M25.4283 24.6002C24.6636 24.0983 23.809 23.7507 22.9136 23.5757L22.7022 24.4851C23.4738 24.6347 24.2113 24.9283 24.8784 25.3508L25.4283 24.6002Z" fill="black"/>
<path d="M26.9626 17.8231C26.416 17.5031 25.6365 17.1106 24.6456 16.6582L24.2661 17.51C25.2286 17.9498 25.9797 18.3273 26.5001 18.6324L26.9626 17.8231Z" fill="black"/>
<path d="M13.5988 29.2219C14.4625 29.0942 15.3068 28.9756 16.1079 28.8708L15.9897 27.9442C15.1829 28.0501 14.3329 28.1686 13.4647 28.2976L13.5988 29.2219Z" fill="black"/>
<path d="M26.1364 25.7823C26.1364 25.7443 26.1342 25.7063 26.1307 25.6683L25.2137 25.7823C25.2137 25.9561 24.8864 26.3601 23.658 26.7642L23.9432 27.654C25.3978 27.174 26.1364 26.5455 26.1364 25.7823Z" fill="black"/>
<path d="M26.3374 20.7356C25.5397 20.8346 24.7329 20.8231 23.9386 20.6988L23.8215 21.6266H23.8227C24.3454 21.6968 24.8727 21.7348 25.4011 21.7382C25.7647 21.7405 26.1272 21.7141 26.4863 21.6577L26.3374 20.7356Z" fill="black"/>
<path d="M14.5635 20.8243C14.3374 21.3573 14.5101 21.9766 14.9783 22.3105L15.5726 21.5956C15.3874 21.4379 15.3874 21.3423 15.3874 21.3112V21.3101C15.3896 21.2641 15.3999 21.218 15.4181 21.1754C15.5328 20.8473 15.8374 20.6263 16.1817 20.6217L16.0408 19.6973C15.3749 19.7526 14.7999 20.1912 14.5635 20.8243Z" fill="black"/>
<path d="M16.9103 27.8257L17.0216 28.7535C17.8932 28.6453 18.7251 28.552 19.5 28.4749L19.5353 28.4714L19.4489 27.5402L19.4046 27.5448C18.6296 27.623 17.7898 27.7175 16.9103 27.8257Z" fill="black"/>
<path d="M17.0124 20.593C17.8397 20.6494 18.6635 20.7507 19.4806 20.8957L19.626 19.9725H19.6249C18.7738 19.8205 17.9158 19.7158 17.0533 19.6594L17.0124 20.593Z" fill="black"/>
<path d="M15.8956 22.8436C16.7103 23.1647 17.549 23.4168 18.4047 23.5964L18.6115 22.6847L18.6126 22.6858C17.8081 22.5166 17.0194 22.2818 16.2547 21.9825L15.8956 22.8436Z" fill="black"/>
<path d="M20.4681 28.3667C21.326 28.2643 22.1772 28.1135 23.0192 27.9143L22.8033 27.0061C21.9953 27.196 21.1772 27.341 20.3533 27.4401L20.4681 28.3667Z" fill="black"/>
</svg>
