<svg width="32" height="32" viewBox="0 0 32 32" fill="none" xmlns="http://www.w3.org/2000/svg">
<path d="M29.858 14.7757C29.6629 14.5807 29.3478 14.5807 29.1528 14.7757L25.6769 18.227C25.6019 18.302 25.5319 18.3871 25.4719 18.4821L23.3763 21.7483L19.1953 17.5966C19.1153 17.5166 19.0103 17.4666 18.8952 17.4566L15.6943 17.1014C15.5693 17.0864 15.4443 17.1215 15.3392 17.1965L14.509 17.8167C13.7137 18.407 12.6384 18.437 11.8182 17.9418L15.5092 14.8906L18.64 14.2704C18.9301 14.2103 19.2002 14.0703 19.4102 13.8602L23.8166 9.48858C24.0116 9.29351 24.0116 8.97837 23.8166 8.78332C23.6215 8.58827 23.3064 8.58824 23.1114 8.78332L18.7051 13.1549C18.635 13.225 18.545 13.275 18.445 13.29L15.3591 13.9052L12.7434 12.6047L8.89241 8.77829C8.69736 8.58321 8.38226 8.58321 8.18722 8.77829C7.99219 8.97336 7.99217 9.2885 8.18722 9.48355L12.0984 13.3651C12.1384 13.4051 12.1784 13.4351 12.2284 13.4601L14.384 14.5305L10.7129 17.5667C10.6029 17.6568 10.5379 17.7868 10.5329 17.9319C10.5279 18.0719 10.5779 18.212 10.6779 18.307C11.8632 19.4875 13.7738 19.6225 15.114 18.6221L15.7892 18.1219L18.62 18.4371L23.2914 23.0789C23.4364 23.2189 23.5115 23.409 23.5115 23.6041C23.5115 23.7992 23.4314 23.9892 23.2914 24.1293C22.9963 24.4244 22.5162 24.4244 22.2211 24.1293L20.9758 22.8938C20.7807 22.6987 20.4656 22.6987 20.2655 22.8938C20.1705 22.9938 20.1205 23.1189 20.1205 23.2489C20.1205 23.379 20.1705 23.504 20.2655 23.6041L21.5109 24.8396C21.6509 24.9796 21.7309 25.1697 21.7309 25.3648C21.7309 25.5599 21.6509 25.7499 21.5109 25.89C21.2158 26.1851 20.7357 26.1851 20.4406 25.89L19.5503 25.0096C19.3553 24.8145 19.0402 24.8145 18.8451 25.0096C18.7501 25.1047 18.7001 25.2347 18.7001 25.3648C18.7001 25.4948 18.7501 25.6199 18.8501 25.7199L19.7404 26.6003C19.8804 26.7403 19.9604 26.9304 19.9604 27.1255C19.9604 27.3205 19.8804 27.5106 19.7404 27.6507C19.4453 27.9458 18.9652 27.9458 18.6701 27.6507L18.1349 27.1205C17.9399 26.9254 17.6248 26.9254 17.4297 27.1205C17.3347 27.2205 17.2847 27.3455 17.2847 27.4756C17.2847 27.6057 17.3347 27.7307 17.4297 27.8308L17.9649 28.3609C18.1049 28.501 18.1849 28.6911 18.1849 28.8861C18.1849 29.0812 18.1049 29.2713 17.9649 29.4113C17.6698 29.7065 17.1897 29.7065 16.8946 29.4113L16.2394 28.7611C16.3044 28.576 16.3444 28.381 16.3444 28.1809C16.3444 27.7157 16.1594 27.2755 15.8293 26.9454C15.5592 26.6803 15.2241 26.5202 14.874 26.4652C14.904 26.3351 14.924 26.2051 14.924 26.065C14.924 25.5999 14.7389 25.1597 14.4088 24.8295C14.1388 24.5594 13.8037 24.4044 13.4536 24.3494C13.4836 24.2193 13.5036 24.0893 13.5036 23.9542C13.5036 23.489 13.3185 23.0489 12.9884 22.7187C12.4333 22.1685 11.6031 22.0735 10.9429 22.4136C10.8629 22.1335 10.7178 21.8734 10.5028 21.6583C9.9176 21.0731 9.01236 20.998 8.33716 21.4132L6.85675 18.7672C6.83174 18.7272 6.80674 18.6871 6.77173 18.6571L2.86056 14.7756C2.66551 14.5805 2.35041 14.5805 2.15538 14.7756C1.96035 14.9707 1.96032 15.2858 2.15538 15.4809L6.01629 19.3125L7.57173 22.0935L6.95155 22.7088C6.61645 23.0389 6.4364 23.4791 6.4364 23.9443C6.4364 24.4095 6.62145 24.8496 6.95155 25.1798C7.22163 25.4499 7.55671 25.6049 7.90683 25.66C7.87682 25.79 7.85681 25.9201 7.85681 26.0551C7.85681 26.5203 8.04186 26.9605 8.37196 27.2906C8.71206 27.6307 9.1622 27.8008 9.61231 27.8008C9.74735 27.8008 9.88238 27.7808 10.0174 27.7508C10.0774 28.1109 10.2425 28.4411 10.5025 28.7062C10.8426 29.0463 11.2928 29.2164 11.7429 29.2164C11.8779 29.2164 12.013 29.1964 12.148 29.1664C12.208 29.5265 12.373 29.8566 12.6381 30.1218C12.9782 30.4619 13.4283 30.632 13.8784 30.632C14.3286 30.632 14.7787 30.4619 15.1188 30.1218L15.654 29.5916L16.1891 30.1218C16.5292 30.4619 16.9793 30.632 17.4295 30.632C17.8796 30.632 18.3297 30.4619 18.6698 30.1218C19.0049 29.7917 19.1849 29.3515 19.1849 28.8863V28.8663H19.205C19.6551 28.8663 20.1052 28.6962 20.4453 28.3561C20.7804 28.0259 20.9604 27.5858 20.9604 27.1206V27.1005C21.4006 27.1156 21.8757 26.9355 22.2208 26.5903C22.5559 26.2602 22.7359 25.8201 22.7359 25.3548V25.3348H22.756C23.2061 25.3348 23.6562 25.1648 23.9963 24.8246C24.3314 24.4945 24.5114 24.0543 24.5114 23.5891C24.5114 23.174 24.3614 22.7888 24.0963 22.4737L26.3169 19.0125C26.3369 18.9825 26.3619 18.9525 26.387 18.9275L29.8628 15.4762C30.0579 15.2811 30.0579 14.966 29.8628 14.7709L29.858 14.7757ZM7.4268 23.9492C7.4268 23.7492 7.50682 23.5641 7.64686 23.424L8.71214 22.3636C8.86219 22.2186 9.05224 22.1435 9.2473 22.1435C9.44236 22.1435 9.63742 22.2186 9.78246 22.3636C9.9275 22.5037 10.0025 22.6937 10.0025 22.8888C10.0025 23.0839 9.9225 23.274 9.78246 23.414L9.30732 23.8892L8.71714 24.4744C8.42205 24.7645 7.94192 24.7696 7.64683 24.4744C7.50679 24.3344 7.4268 24.1443 7.4268 23.9492ZM9.06725 26.5953C8.92221 26.4552 8.84719 26.2652 8.84719 26.0701C8.84719 25.875 8.92721 25.6849 9.06725 25.5449L11.1978 23.429C11.3479 23.284 11.5379 23.2089 11.733 23.2089C11.928 23.2089 12.1231 23.284 12.2681 23.429C12.4132 23.5691 12.4882 23.7591 12.4882 23.9542C12.4882 24.1493 12.4082 24.3394 12.2681 24.4794L11.1978 25.5398L10.4876 26.2451L10.1325 26.5953C9.83742 26.8904 9.35728 26.8904 9.06219 26.5953H9.06725ZM11.1978 28.0058C11.0578 27.8657 10.9778 27.6757 10.9778 27.4806C10.9778 27.2855 11.0528 27.1005 11.1928 26.9604L12.6182 25.5448C12.7633 25.3948 12.9583 25.3198 13.1534 25.3198C13.3484 25.3198 13.5435 25.3948 13.6885 25.5398C13.8286 25.6799 13.9086 25.8699 13.9086 26.065C13.9086 26.2601 13.8286 26.4502 13.6885 26.5902L13.3334 26.9404L13.1534 27.1155L12.2631 27.9958C11.9681 28.2909 11.4879 28.2909 11.1928 27.9958L11.1978 28.0058ZM14.4038 29.4163C14.1088 29.7114 13.6286 29.7114 13.3335 29.4163C13.1935 29.2763 13.1135 29.0862 13.1135 28.8911C13.1135 28.6961 13.1935 28.506 13.3335 28.3659L14.0437 27.6607C14.1888 27.5156 14.3838 27.4406 14.5789 27.4406C14.774 27.4406 14.969 27.5156 15.114 27.6607C15.2541 27.8007 15.3341 27.9908 15.3341 28.1909C15.3341 28.3909 15.2541 28.576 15.114 28.7161L14.4038 29.4213V29.4163Z" fill="black"/>
<path d="M15.7891 11.582C15.8591 11.617 15.9341 11.632 16.0091 11.632C16.0841 11.632 16.1591 11.617 16.2291 11.582C16.4641 11.467 22.0091 8.742 22.0091 4.99707C22.0091 3.14208 20.5041 1.63198 18.6541 1.63198C17.5991 1.63198 16.6341 2.11697 16.0091 2.92195C15.3841 2.11697 14.419 1.63198 13.364 1.63198C11.514 1.63198 10.0091 3.14198 10.0091 4.99707C10.0091 8.74712 15.5542 11.4671 15.7891 11.582ZM13.3641 2.63197C14.3241 2.63197 15.1791 3.21196 15.5441 4.10697C15.6191 4.29696 15.8041 4.41696 16.0091 4.41696C16.2141 4.41696 16.3941 4.29197 16.4741 4.10697C16.8391 3.21196 17.6942 2.63197 18.6542 2.63197C19.9542 2.63197 21.0092 3.69196 21.0092 4.99694C21.0092 7.74694 16.9992 10.0468 16.0091 10.5719C15.0191 10.047 11.009 7.74697 11.009 4.99694C11.009 3.69196 12.064 2.63197 13.3641 2.63197Z" fill="black"/>
</svg>
