<svg width="32" height="32" viewBox="0 0 32 32" fill="none" xmlns="http://www.w3.org/2000/svg">
<path d="M19.8867 14.6233C19.922 14.6984 19.9411 14.7786 19.943 14.8599L20.2511 15C20.2868 14.9518 20.3265 14.9057 20.3664 14.8597C20.4316 14.7834 20.5021 14.7108 20.5777 14.6422L21 14.2394C19.2472 13.3595 14.7429 11.0787 14.7058 11.0591C14.6535 11.0312 14.5955 11.0127 14.5351 11.0047C14.4747 10.9966 14.4131 10.999 14.3538 11.0119C14.2945 11.0249 14.2386 11.0479 14.1894 11.0799C14.1402 11.1118 14.0986 11.152 14.067 11.1981C14.0354 11.2441 14.0145 11.2953 14.0053 11.3485C13.9961 11.4018 13.9989 11.4561 14.0136 11.5084C14.0282 11.5607 14.0544 11.6099 14.0906 11.6533C14.1268 11.6966 14.1724 11.7333 14.2247 11.7611C14.2638 11.782 17.844 13.595 19.8867 14.6233Z" fill="black"/>
<path d="M5.19856 9.14951C5.58101 10.6969 6.61817 12.0668 7.90693 12.7279L10.0967 14C10.3312 13.7863 10.6066 13.6232 10.9058 13.5208L8.3037 12.0091C8.29733 12.0053 8.29077 12.0017 8.28401 11.9983C7.19612 11.444 6.31667 10.2761 5.98891 8.95003C5.91105 8.64321 5.85633 8.33088 5.82523 8.0157C5.68084 6.77824 6.92326 4.22798 8.3751 3.325C8.7295 3.12637 9.11246 2.98491 9.51012 2.90575C10.1012 2.78764 10.7103 2.79537 11.2983 2.92845C11.3112 2.93166 11.3243 2.93427 11.3374 2.93628L16.8401 3.75932C16.9767 3.81067 17.089 3.91224 17.1546 4.0437C17.2203 4.17515 17.2343 4.32678 17.1939 4.46824L16.9839 5.25572C16.9663 5.33459 16.9333 5.40915 16.8869 5.47505C16.8405 5.54095 16.7816 5.59688 16.7136 5.63961C16.5885 5.72426 16.4354 5.75553 16.2876 5.72659C16.2801 5.72499 16.2725 5.72338 16.2647 5.72218L13.7245 5.30018C13.7049 5.21983 13.6617 5.14735 13.6005 5.09226C13.5394 5.03717 13.4632 5.00205 13.3819 4.9915C13.3007 4.98096 13.2182 4.99549 13.1452 5.03317C13.0723 5.07086 13.0123 5.12995 12.9732 5.20268C12.635 5.81839 12.0692 6.27383 11.3995 6.46949C10.7299 6.66515 10.0108 6.58512 9.39933 6.24689C9.30444 6.19479 9.19294 6.18289 9.08937 6.21382C8.98579 6.24475 8.89862 6.31597 8.84703 6.41182C8.79545 6.50767 8.78367 6.62029 8.81429 6.72491C8.84491 6.82953 8.91542 6.91758 9.01032 6.96968C9.72533 7.36351 10.555 7.48979 11.3532 7.32625C12.1513 7.16272 12.8667 6.71987 13.3733 6.07575L16.0588 6.52183L21.1982 9.52578C21.3346 9.61028 21.4368 9.74091 21.4867 9.89442C21.5366 10.0479 21.531 10.2144 21.4709 10.3641L21.3181 10.6397C21.2391 10.7715 21.1121 10.8669 20.9643 10.9055C20.7983 10.9605 20.6178 10.9497 20.4594 10.8753C20.4101 10.8485 20.3559 10.8323 20.3002 10.8277L16.7532 8.77244C16.6595 8.71835 16.5484 8.70402 16.4443 8.73259C16.3402 8.76117 16.2516 8.83031 16.1979 8.92483C16.1442 9.01936 16.1298 9.13154 16.1579 9.23676C16.1861 9.34197 16.2544 9.43161 16.3479 9.48599L22.0035 12.7631C22.0589 12.7956 22.1036 12.8439 22.132 12.902C22.4262 12.8827 22.7212 12.9226 23 13.0194C22.9861 12.8198 22.9242 12.6266 22.8195 12.4566C22.7149 12.2867 22.5708 12.1451 22.3996 12.0443L21.5363 11.544C21.745 11.4238 21.9167 11.2476 22.0325 11.035L22.1853 10.7592C22.347 10.4185 22.3763 10.0288 22.2671 9.66741C22.158 9.30597 21.9185 8.99911 21.596 8.8076L17.2468 6.26536C17.5134 6.06639 17.7008 5.77757 17.7749 5.45118L17.9851 4.66351C18.1547 3.88105 17.7156 3.11387 17.006 2.95336C16.9962 2.95135 16.9865 2.94934 16.9767 2.94793L11.4715 2.1245C10.7748 1.96789 10.0535 1.95893 9.3532 2.09818C8.86634 2.19555 8.39772 2.36985 7.96461 2.61466C6.19336 3.71552 4.84057 6.60588 5.01519 8.10309C5.05014 8.45606 5.11144 8.80586 5.19856 9.14951Z" fill="black"/>
<path d="M21.4397 14.0647L20.886 14.6534C20.6263 14.9043 20.4713 15.2413 20.4514 15.5985L15.6619 13.1731C15.3102 12.9948 14.9031 12.9524 14.5212 13.0544C14.1392 13.1563 13.8101 13.3952 13.5987 13.7238L13.4481 13.996C13.3209 14.2229 13.2596 14.4797 13.2706 14.7385L12.31 14.2475C11.6869 13.9095 10.829 14.1964 10.4315 14.8815L10.1834 15.3288C10.1787 15.3373 10.1741 15.3462 10.17 15.3552C9.80636 16.1428 10.0321 16.8634 10.7893 17.3325C10.811 17.346 10.9746 17.4315 11.2332 17.5652C11.1075 17.6488 11.0037 17.7604 10.9303 17.8909L10.6336 18.4063C10.4224 18.7876 10.3716 19.235 10.4922 19.6526C10.5349 19.8206 10.6115 19.9785 10.7175 20.1169C10.8235 20.2553 10.9567 20.3715 11.1092 20.4585L11.8148 20.8176L11.5366 21.3053C11.4302 21.4897 11.3628 21.6933 11.3386 21.9039C11.3144 22.1145 11.3338 22.3277 11.3956 22.5308C11.4402 22.6727 11.5144 22.8038 11.6134 22.916C11.7125 23.0282 11.8342 23.1189 11.9709 23.1824L20.0416 27.2961C20.8963 27.7685 21.8628 28.0112 22.8436 27.9996C23.4979 28.0003 24.1481 27.8993 24.7702 27.7004C25.1228 27.5892 25.4665 27.4523 25.7983 27.2907C27.2391 26.6185 29.0356 23.8499 28.9995 21.6772C28.9673 21.1705 28.8542 20.672 28.6642 20.1998C28.3862 19.51 27.965 18.8845 27.4273 18.3631L23.528 13.9889C23.5216 13.9816 23.5147 13.9744 23.5075 13.9675C22.9667 13.443 22.0452 13.48 21.4397 14.0647ZM22.9176 14.5358L26.8153 18.9082C26.822 18.9156 26.8294 18.9233 26.8365 18.9302C27.2973 19.3747 27.6582 19.9089 27.8961 20.4984C28.0522 20.8855 28.1459 21.2941 28.1741 21.7095C28.2035 23.5032 26.6356 26.0021 25.4354 26.5621C25.1376 26.7071 24.8291 26.83 24.5126 26.9298C23.1339 27.3739 21.5779 27.244 20.4517 26.5918C20.4453 26.588 20.4388 26.5844 20.4321 26.5811L12.3427 22.4579C12.3358 22.4546 12.3288 22.4512 12.3219 22.448C12.287 22.4322 12.2562 22.4087 12.2318 22.3795C12.2074 22.3503 12.1901 22.316 12.1811 22.2793C12.1289 22.0852 12.1558 21.8788 12.2561 21.7039L12.5485 21.1911L16.4721 23.1882C16.5685 23.2372 16.6807 23.2471 16.7844 23.2156C16.8881 23.1841 16.975 23.1138 17.0263 23.0199C17.0777 22.926 17.0893 22.8161 17.0587 22.7139C17.0281 22.6116 16.9577 22.5253 16.8628 22.4736L16.3751 22.2078C16.3381 22.1878 16.2982 22.1733 16.2567 22.1649L11.4995 19.7436C11.3908 19.6706 11.3149 19.5594 11.2875 19.4329C11.2261 19.2236 11.2493 18.9992 11.3523 18.8062L11.6492 18.2906C11.6974 18.2139 11.7625 18.1487 11.8398 18.1C11.9171 18.0513 12.0045 18.0202 12.0957 18.0092C14.0417 19.0084 17.4758 20.7608 17.5144 20.7796C17.6126 20.8272 17.7261 20.8345 17.8299 20.8C17.9336 20.7655 18.0192 20.6919 18.0677 20.5955C18.1162 20.499 18.1237 20.3876 18.0885 20.2857C18.0533 20.1839 17.9783 20.0999 17.8801 20.0523C17.8355 20.0305 11.4878 16.7911 11.2302 16.6466C10.8204 16.3927 10.729 16.1187 10.9166 15.7029L11.1532 15.2761C11.3188 14.9906 11.6867 14.8356 11.9191 14.9621L18.7783 18.468C18.8755 18.5177 18.9888 18.5275 19.0934 18.4951C19.1979 18.4628 19.285 18.391 19.3356 18.2956C19.3862 18.2002 19.3962 18.0889 19.3632 17.9863C19.3303 17.8837 19.2572 17.7982 19.1599 17.7485L14.4257 15.3288C14.2775 15.2268 14.1707 15.0767 14.1239 14.9051C14.0772 14.7334 14.0935 14.5511 14.17 14.3901L14.3207 14.1178C14.4255 13.9746 14.5789 13.8728 14.7534 13.8307C14.9278 13.7887 15.1119 13.8091 15.2723 13.8883L20.899 16.7377L22.6445 18.6276C22.7182 18.7071 22.821 18.7545 22.9303 18.7597C23.0396 18.7648 23.1465 18.7271 23.2275 18.655C23.3086 18.5828 23.3571 18.482 23.3626 18.3747C23.368 18.2674 23.3299 18.1624 23.2565 18.0827L21.4611 16.1387C21.456 16.1331 21.4508 16.1278 21.4453 16.1226C21.389 16.065 21.3448 15.9971 21.3152 15.9226C21.2857 15.8482 21.2714 15.7688 21.2731 15.689C21.273 15.6009 21.2913 15.5137 21.3266 15.4327C21.362 15.3517 21.4138 15.2787 21.4788 15.2179L22.0325 14.6293C22.1406 14.5066 22.2921 14.4288 22.4563 14.4114C22.6206 14.3941 22.7855 14.4385 22.9176 14.5358Z" fill="black"/>
</svg>
