<svg width="32" height="32" viewBox="0 0 32 32" fill="none" xmlns="http://www.w3.org/2000/svg">
<path fill-rule="evenodd" clip-rule="evenodd" d="M18.7477 12.7739L21.7045 12.9862C21.8488 12.9973 21.9817 13.0481 22.0886 13.13H22.0897C22.1965 13.2118 22.2795 13.3246 22.3238 13.4596C22.3692 13.5945 22.3704 13.7327 22.3329 13.8599L22.3283 13.8743C22.2897 13.9982 22.2158 14.1099 22.109 14.1973L19.8454 16.0608L20.5511 18.8644C20.5852 19.0016 20.5772 19.1387 20.5306 19.2637V19.2648C20.484 19.3898 20.3988 19.5004 20.2806 19.5833C20.1636 19.6663 20.0295 19.7105 19.892 19.7149C19.7556 19.7193 19.6181 19.6851 19.4954 19.611L16.9727 18.0914L14.4511 19.611C14.3283 19.6851 14.1908 19.7193 14.0545 19.7149C13.917 19.7105 13.7817 19.6663 13.6658 19.5833C13.5488 19.5004 13.4636 19.3898 13.4158 19.2637C13.3681 19.1398 13.3602 19.0016 13.3942 18.8644L14.0999 16.0608L11.8363 14.1973C11.7261 14.1066 11.65 13.9893 11.6113 13.861C11.5738 13.7328 11.575 13.5956 11.6204 13.4607C11.6647 13.3269 11.7477 13.214 11.8545 13.1311C11.9613 13.0481 12.0943 12.9973 12.2397 12.9873L15.1965 12.775L16.3193 10.1041H16.3181C16.3727 9.97355 16.4636 9.86627 16.5783 9.79216C16.692 9.71695 16.8283 9.67603 16.9727 9.67603C17.117 9.67603 17.2522 9.71695 17.367 9.79216C17.4806 9.86626 17.5715 9.97354 17.6261 10.1041L18.7477 12.7739ZM21.2181 11.867L23.2806 11.3295C23.4192 11.293 23.5011 11.1547 23.4647 11.0198C23.4283 10.8849 23.2852 10.8052 23.1465 10.8406L21.084 11.3781C20.9454 11.4135 20.8636 11.5529 20.8999 11.6878C20.9374 11.8227 21.0795 11.9035 21.2181 11.867ZM19.809 9.72362L21.3181 8.25489C21.4192 8.15646 21.4192 7.9961 21.3181 7.89657C21.2158 7.79814 21.0522 7.79814 20.9499 7.89657L19.4408 9.36529C19.3386 9.46483 19.3386 9.62409 19.4408 9.72362C19.542 9.82205 19.7068 9.82205 19.809 9.72362ZM12.8612 11.3793L10.7988 10.8418C10.6601 10.8064 10.5181 10.886 10.4806 11.0209C10.4431 11.1559 10.526 11.2941 10.6646 11.3306L12.7271 11.8681C12.8658 11.9035 13.0078 11.8239 13.0453 11.6889C13.0817 11.554 12.9999 11.4147 12.8612 11.3793ZM14.5044 9.36529L12.9953 7.89657C12.8942 7.79814 12.7294 7.79814 12.6271 7.89657C12.526 7.995 12.526 8.15536 12.6271 8.25489L14.1362 9.72362C14.2374 9.82316 14.4021 9.82316 14.5044 9.72362C14.6055 9.62408 14.6055 9.46482 14.5044 9.36529ZM17.2328 8.53361C17.2328 8.67296 17.1158 8.78687 16.9726 8.78687C16.8294 8.78687 16.7124 8.67406 16.7124 8.53361V6.45551C16.7124 6.31615 16.8283 6.20224 16.9726 6.20224C17.1158 6.20224 17.2328 6.31505 17.2328 6.45551V8.53361ZM19.7498 22.9488L19.7589 22.9388L19.7601 22.9377C19.8851 22.8061 19.9601 22.6292 19.9601 22.4356C19.9601 22.2387 19.8817 22.0607 19.7533 21.928C19.6283 21.7986 19.4555 21.7134 19.2601 21.6979L14.4988 21.699V21.6979C14.4488 21.6979 14.3988 21.6846 14.3545 21.6548C13.5726 21.146 12.6726 20.8873 11.7715 20.8795C10.9147 20.8718 10.0556 21.0918 9.29423 21.5386V25.9736L19.5421 26.5265L26.2694 22.7595C26.4171 22.6533 26.516 22.5029 26.558 22.3403C26.6012 22.1745 26.5853 21.9942 26.5046 21.8305C26.4239 21.6679 26.2887 21.5441 26.1284 21.4744C25.9716 21.4058 25.7909 21.387 25.6148 21.4323L20.0864 23.3368C19.875 23.5348 19.5921 23.662 19.2773 23.6797L14.6376 23.6808C14.4944 23.6808 14.3774 23.568 14.3774 23.4275C14.3774 23.2882 14.4944 23.1742 14.6376 23.1742H19.2625C19.4534 23.1599 19.6248 23.0759 19.7498 22.9488ZM20.4578 22.6723L25.4463 20.9536L25.477 20.9448C25.7736 20.8673 26.077 20.8983 26.3406 21.0133C26.6088 21.1306 26.835 21.3385 26.9713 21.6117C27.1077 21.8848 27.1327 22.1867 27.0611 22.4633C26.9895 22.7409 26.8202 22.9952 26.5679 23.1733C26.5554 23.1821 26.5418 23.1899 26.5282 23.1965L19.7316 27.0012C19.6862 27.0266 19.6362 27.0366 19.5885 27.0344L9.2929 26.4792V26.9061C9.2929 27.1438 9.1929 27.3606 9.03154 27.5177L9.0304 27.5188C8.86904 27.6758 8.64631 27.7732 8.40198 27.7732H5.79174C5.54742 27.7732 5.32469 27.6758 5.16332 27.5188L5.16218 27.5177C5.00082 27.3606 4.90082 27.1439 4.90082 26.9061V20.9516C4.90082 20.7127 5.00082 20.4959 5.16218 20.3389L5.17923 20.3234C5.33945 20.1752 5.55537 20.0834 5.79174 20.0834H8.40198C8.64629 20.0834 8.86903 20.1807 9.0304 20.3378H9.03153C9.1929 20.4959 9.2929 20.7127 9.2929 20.9516V20.9593C10.069 20.5634 10.9225 20.3688 11.7747 20.3754C12.7497 20.3842 13.7224 20.6563 14.5747 21.1916H19.2621C19.2746 21.1916 19.286 21.1927 19.2985 21.1938C19.628 21.2181 19.9212 21.363 20.1326 21.582C20.3485 21.8054 20.4814 22.1074 20.4814 22.4358C20.4803 22.5176 20.4723 22.5962 20.4576 22.6725L20.4578 22.6723ZM8.40224 20.5908H5.792C5.69541 20.5908 5.60677 20.6273 5.53973 20.687L5.5295 20.697C5.46245 20.7623 5.42041 20.8518 5.42041 20.9514V26.9058C5.42041 27.0054 5.46132 27.0961 5.5295 27.1602C5.59655 27.2255 5.68973 27.2664 5.792 27.2664H8.40224C8.50451 27.2664 8.59769 27.2255 8.66474 27.1602C8.73065 27.0961 8.77269 27.0054 8.77269 26.9058V20.9514C8.77269 20.8518 8.73065 20.7623 8.6636 20.697C8.59769 20.6306 8.50451 20.5908 8.40224 20.5908ZM21.6683 13.4917L18.55 13.2672V13.2661C18.4546 13.2594 18.3671 13.2019 18.3284 13.109L17.1466 10.2932C17.1318 10.2578 17.108 10.2291 17.0784 10.2103C17.05 10.1915 17.0137 10.1815 16.9727 10.1815C16.9318 10.1815 16.8955 10.1926 16.8671 10.2103C16.8387 10.2291 16.8148 10.2567 16.8 10.2932H16.7989L15.6239 13.0913C15.5921 13.1875 15.5034 13.2594 15.3943 13.2683L12.2772 13.4928C12.2386 13.495 12.2034 13.5083 12.1761 13.5293H12.175C12.1477 13.5492 12.1272 13.5802 12.1147 13.6178C12.1022 13.6543 12.1022 13.6908 12.1113 13.7239V13.725C12.1204 13.7571 12.1409 13.7881 12.1716 13.8135L14.5579 15.7777C14.6306 15.8374 14.6659 15.9337 14.642 16.0299L13.8977 18.9852C13.8886 19.0228 13.8909 19.0604 13.9022 19.0925V19.0936C13.9136 19.1245 13.9363 19.1533 13.9693 19.1765C14.0022 19.1997 14.0375 19.2119 14.0715 19.213C14.1068 19.2141 14.1443 19.2042 14.1784 19.1842L16.8318 17.585C16.9136 17.5342 17.0204 17.5297 17.1079 17.5828L19.7659 19.182C19.8 19.2019 19.8363 19.2119 19.8727 19.2108C19.9068 19.2097 19.942 19.1975 19.975 19.1743C20.0068 19.1522 20.0295 19.1223 20.042 19.0902C20.0545 19.0582 20.0556 19.0217 20.0465 18.983L19.3056 16.041C19.2772 15.9481 19.3056 15.843 19.3863 15.7755L21.7727 13.8114C21.8011 13.7881 21.8204 13.7594 21.8306 13.7295L21.8329 13.7218C21.842 13.6886 21.842 13.6521 21.8295 13.6156C21.817 13.5791 21.7954 13.5481 21.7681 13.5271C21.742 13.5072 21.7069 13.4939 21.6683 13.4917Z" fill="black"/>
</svg>
