<svg width="32" height="32" viewBox="0 0 32 32" fill="none" xmlns="http://www.w3.org/2000/svg">
<path d="M13.024 7.1604C13.12 7.31881 13.28 7.41386 13.472 7.41386C13.568 7.41386 13.632 7.38218 13.728 7.35049C13.952 7.22376 14.048 6.90693 13.92 6.68515L12.736 4.68911C12.608 4.46733 12.288 4.37228 12.064 4.49901C11.84 4.62574 11.744 4.94257 11.872 5.16436L13.024 7.1604Z" fill="black"/>
<path d="M16 6.74852C16.288 6.74852 16.512 6.52673 16.512 6.24159V3.92871C16.512 3.64357 16.288 3.42178 16 3.42178C15.712 3.42178 15.488 3.64357 15.488 3.92871V6.24159C15.488 6.52673 15.712 6.74852 16 6.74852Z" fill="black"/>
<path d="M18.272 7.3505C18.336 7.38218 18.432 7.41386 18.528 7.41386C18.688 7.41386 18.88 7.31881 18.976 7.1604L20.16 5.16436C20.288 4.94258 20.224 4.62575 19.968 4.49901C19.744 4.37228 19.424 4.43565 19.296 4.68911L18.112 6.65347C17.952 6.90693 18.048 7.19208 18.272 7.3505Z" fill="black"/>
<path d="M4.15999 21.3861C4.15999 21.101 3.93599 20.8792 3.64799 20.8792C3.35999 20.8792 3.13599 21.101 3.13599 21.3861V23.0337H1.79199V21.9881C1.79199 19.3267 3.96799 17.1406 6.65599 17.1406C7.74399 17.1406 8.76799 17.4891 9.56799 18.0911C9.75999 17.8376 9.98399 17.5842 10.208 17.3307C9.75999 16.9822 9.21599 16.697 8.67199 16.4752C9.66399 15.8099 10.336 14.701 10.336 13.4337C10.336 11.4059 8.67199 9.7901 6.65599 9.7901C4.60799 9.7901 2.97599 11.4376 2.97599 13.4337C2.97599 14.701 3.64799 15.8416 4.63999 16.4752C2.39999 17.299 0.799988 19.4218 0.799988 21.9248V23.4772C0.799988 23.7624 1.02399 23.9842 1.31199 23.9842H7.96799V23.002H4.15999V21.3861ZM3.96799 13.4653C3.96799 12.0079 5.18399 10.804 6.65599 10.804C8.12799 10.804 9.34399 12.0079 9.34399 13.4653C9.34399 14.9228 8.12799 16.1267 6.65599 16.1267C5.18399 16.1267 3.96799 14.9228 3.96799 13.4653Z" fill="black"/>
<path d="M27.36 16.5069C28.352 15.8416 29.024 14.7327 29.024 13.4653C29.024 11.4376 27.36 9.82178 25.344 9.82178C23.296 9.82178 21.664 11.4693 21.664 13.4653C21.664 14.7327 22.336 15.8733 23.328 16.5069C22.784 16.697 22.24 16.9822 21.792 17.3624C22.016 17.5842 22.24 17.8376 22.432 18.0911C23.264 17.4891 24.256 17.1406 25.344 17.1406C28.032 17.1406 30.24 19.2951 30.24 21.9881V23.0337H28.864V21.3861C28.864 21.101 28.64 20.8792 28.352 20.8792C28.064 20.8792 27.84 21.101 27.84 21.3861V23.0337H24.064V24.0158H30.72C31.008 24.0158 31.232 23.7941 31.232 23.5089V21.9564C31.2 19.4535 29.6 17.3307 27.36 16.5069ZM22.624 13.4653C22.624 12.0079 23.84 10.804 25.312 10.804C26.784 10.804 28 12.0079 28 13.4653C28 14.9228 26.784 16.1267 25.312 16.1267C23.84 16.1267 22.624 14.9228 22.624 13.4653Z" fill="black"/>
<path d="M18.208 16.3168C19.488 15.5564 20.384 14.1624 20.384 12.5782C20.384 10.1703 18.4 8.23763 16 8.23763C13.6 8.23763 11.616 10.202 11.616 12.5782C11.616 14.1624 12.48 15.5564 13.792 16.3168C10.976 17.2356 8.95999 19.8653 8.95999 22.9386V24.8079C8.95999 25.0931 9.18399 25.3149 9.47199 25.3149H12.288L11.2 24.3327H9.98399V22.9386C9.98399 19.6119 12.704 16.9505 16.032 16.9505C19.36 16.9505 22.08 19.6436 22.08 22.9386V24.3327H20.864L19.776 25.3149H22.592C22.88 25.3149 23.104 25.0931 23.104 24.8079V22.9386C23.072 19.8337 21.024 17.2356 18.208 16.3168ZM12.608 12.5465C12.608 10.7089 14.112 9.18812 16 9.18812C17.888 9.18812 19.392 10.7089 19.392 12.5465C19.392 14.3842 17.856 15.9366 16 15.9366C14.144 15.9366 12.608 14.4158 12.608 12.5465Z" fill="black"/>
<path d="M18.56 25.0614L20.512 23.2871C20.672 23.1604 20.704 22.9386 20.672 22.7485C20.608 22.5584 20.416 22.4 20.224 22.4L17.568 22.1149L16.48 19.7069C16.384 19.5168 16.192 19.3901 16 19.3901C15.808 19.3901 15.616 19.5168 15.52 19.7069L14.432 22.1149L11.776 22.4C11.584 22.4317 11.392 22.5584 11.328 22.7485C11.264 22.9386 11.328 23.1604 11.488 23.2871L13.44 25.0614L12.896 27.6277C12.864 27.8178 12.928 28.0396 13.088 28.1663C13.248 28.2931 13.472 28.2931 13.664 28.198L15.968 26.899L18.272 28.198C18.336 28.2297 18.432 28.2614 18.528 28.2614C18.624 28.2614 18.752 28.2297 18.848 28.1663C19.008 28.0396 19.104 27.8178 19.04 27.6594L18.56 25.0614ZM17.504 24.998L17.888 26.8356L16.256 25.9168C16.096 25.8218 15.904 25.8218 15.776 25.9168L14.144 26.8356L14.528 24.998C14.56 24.8396 14.496 24.6495 14.368 24.5228L12.96 23.2554L14.848 23.0337C15.008 23.002 15.168 22.9069 15.232 22.7485L16 21.0376L16.768 22.7485C16.832 22.9069 16.992 23.002 17.152 23.0337L19.04 23.2554L17.632 24.5228C17.536 24.6495 17.472 24.8079 17.504 24.998Z" fill="black"/>
</svg>
